<svg width="50" height="50" viewBox="0 0 50 50" fill="none" xmlns="http://www.w3.org/2000/svg">
<path d="M14.5191 14.5187C14.6642 14.3732 14.8367 14.2578 15.0265 14.179C15.2163 14.1002 15.4198 14.0597 15.6254 14.0597C15.8309 14.0597 16.0344 14.1002 16.2242 14.179C16.414 14.2578 16.5865 14.3732 16.7316 14.5187L25.0004 22.7906L33.2691 14.5187C33.4144 14.3735 33.5868 14.2582 33.7767 14.1796C33.9665 14.101 34.1699 14.0605 34.3754 14.0605C34.5808 14.0605 34.7842 14.101 34.974 14.1796C35.1639 14.2582 35.3363 14.3735 35.4816 14.5187C35.6269 14.664 35.7421 14.8365 35.8207 15.0263C35.8994 15.2161 35.9398 15.4195 35.9398 15.625C35.9398 15.8304 35.8994 16.0339 35.8207 16.2237C35.7421 16.4135 35.6269 16.586 35.4816 16.7312L27.2097 25L35.4816 33.2687C35.6269 33.414 35.7421 33.5865 35.8207 33.7763C35.8994 33.9661 35.9398 34.1695 35.9398 34.375C35.9398 34.5804 35.8994 34.7839 35.8207 34.9737C35.7421 35.1635 35.6269 35.336 35.4816 35.4812C35.3363 35.6265 35.1639 35.7417 34.974 35.8204C34.7842 35.899 34.5808 35.9395 34.3754 35.9395C34.1699 35.9395 33.9665 35.899 33.7767 35.8204C33.5868 35.7417 33.4144 35.6265 33.2691 35.4812L25.0004 27.2094L16.7316 35.4812C16.5863 35.6265 16.4139 35.7417 16.224 35.8204C16.0342 35.899 15.8308 35.9395 15.6254 35.9395C15.4199 35.9395 15.2165 35.899 15.0267 35.8204C14.8368 35.7417 14.6644 35.6265 14.5191 35.4812C14.3738 35.336 14.2586 35.1635 14.18 34.9737C14.1013 34.7839 14.0609 34.5804 14.0609 34.375C14.0609 34.1695 14.1013 33.9661 14.18 33.7763C14.2586 33.5865 14.3738 33.414 14.5191 33.2687L22.791 25L14.5191 16.7312C14.3736 16.5861 14.2581 16.4137 14.1794 16.2238C14.1006 16.034 14.0601 15.8305 14.0601 15.625C14.0601 15.4195 14.1006 15.216 14.1794 15.0261C14.2581 14.8363 14.3736 14.6639 14.5191 14.5187Z" fill="#595959"/>
</svg>
