<svg width="15" height="16" viewBox="0 0 15 16" fill="none" xmlns="http://www.w3.org/2000/svg">
<path d="M10.625 12.5125H3.125V4.875H7.5V3.625H3.125C2.4375 3.625 1.875 4.1875 1.875 4.875V12.375C1.875 13.0625 2.4375 13.625 3.125 13.625H10.625C11.3125 13.625 11.875 13.0625 11.875 12.375V8H10.625V12.5125Z" fill="white"/>
<path d="M11.875 1.75H10.625V3.625H8.75C8.75625 3.63125 8.75 4.875 8.75 4.875H10.625V6.74375C10.6312 6.75 11.875 6.74375 11.875 6.74375V4.875H13.75V3.625H11.875V1.75ZM4.375 6.125H9.375V7.375H4.375V6.125ZM4.375 8V9.25H9.375V8H7.5H4.375ZM4.375 9.875H9.375V11.125H4.375V9.875Z" fill="white"/>
</svg>
