<svg width="30" height="30" viewBox="0 0 30 30" fill="none" xmlns="http://www.w3.org/2000/svg">
<path d="M25 22.5C26.375 22.5 27.4875 21.375 27.4875 20L27.5 7.5C27.5 6.83696 27.2366 6.20107 26.7678 5.73223C26.2989 5.26339 25.663 5 25 5H5C3.6125 5 2.5 6.1125 2.5 7.5V20C2.5 20.663 2.76339 21.2989 3.23223 21.7678C3.70107 22.2366 4.33696 22.5 5 22.5H0V25H30V22.5H25ZM5 20V7.5H25V20.0125L5 20ZM16.25 11.4125C11.3875 12.0875 9.45 15.4125 8.75 18.75C10.4875 16.4125 12.775 15.35 16.25 15.35V18.0875L21.25 13.4125L16.25 8.75V11.4125Z" fill="#3DC1FA"/>
</svg>
