<svg width="32" height="32" viewBox="0 0 32 32" fill="none" xmlns="http://www.w3.org/2000/svg">
<path d="M16.0156 12.2062C15.0813 12.2062 14.2063 12.5687 13.5438 13.2312C12.8844 13.8937 12.5188 14.7687 12.5188 15.703C12.5188 16.6374 12.8844 17.5124 13.5438 18.1749C14.2063 18.8343 15.0813 19.1999 16.0156 19.1999C16.95 19.1999 17.825 18.8343 18.4875 18.1749C19.1469 17.5124 19.5125 16.6374 19.5125 15.703C19.5125 14.7687 19.1469 13.8937 18.4875 13.2312C18.1639 12.9051 17.7788 12.6466 17.3544 12.4706C16.9301 12.2946 16.475 12.2047 16.0156 12.2062V12.2062ZM28.9 19.5655L26.8563 17.8187C26.9531 17.2249 27.0031 16.6187 27.0031 16.0155C27.0031 15.4124 26.9531 14.803 26.8563 14.2124L28.9 12.4655C29.0544 12.3334 29.1649 12.1573 29.2168 11.9608C29.2687 11.7643 29.2596 11.5567 29.1906 11.3655L29.1625 11.2843C28.6001 9.71144 27.7573 8.25351 26.675 6.98115L26.6188 6.91553C26.4873 6.761 26.3122 6.64992 26.1164 6.59693C25.9206 6.54393 25.7133 6.55151 25.5219 6.61865L22.9844 7.52178C22.0469 6.75303 21.0031 6.14678 19.8719 5.7249L19.3813 3.07178C19.3442 2.87191 19.2473 2.68804 19.1033 2.54458C18.9593 2.40113 18.775 2.30489 18.575 2.26865L18.4906 2.25303C16.8656 1.95928 15.1531 1.95928 13.5281 2.25303L13.4438 2.26865C13.2438 2.30489 13.0595 2.40113 12.9155 2.54458C12.7715 2.68804 12.6745 2.87191 12.6375 3.07178L12.1438 5.7374C11.0232 6.16264 9.97937 6.76742 9.05314 7.52803L6.49689 6.61865C6.30553 6.55097 6.09811 6.54312 5.90219 6.59615C5.70626 6.64918 5.53111 6.76057 5.40002 6.91553L5.34377 6.98115C4.26343 8.25487 3.42086 9.71243 2.85627 11.2843L2.82814 11.3655C2.68752 11.7562 2.80314 12.1937 3.11877 12.4655L5.18752 14.2312C5.09064 14.8187 5.04376 15.4187 5.04376 16.0124C5.04376 16.6124 5.09064 17.2124 5.18752 17.7937L3.12502 19.5593C2.97063 19.6914 2.86013 19.8675 2.80821 20.064C2.7563 20.2605 2.76543 20.4681 2.83439 20.6593L2.86252 20.7405C3.42814 22.3124 4.26251 23.7655 5.35001 25.0437L5.40627 25.1093C5.53768 25.2638 5.71284 25.3749 5.90865 25.4279C6.10445 25.4809 6.31172 25.4733 6.50314 25.4062L9.05939 24.4968C9.99064 25.2624 11.0281 25.8687 12.15 26.2874L12.6438 28.953C12.6808 29.1529 12.7777 29.3368 12.9217 29.4802C13.0658 29.6237 13.25 29.7199 13.45 29.7562L13.5344 29.7718C15.1754 30.0671 16.8559 30.0671 18.4969 29.7718L18.5813 29.7562C18.7813 29.7199 18.9655 29.6237 19.1095 29.4802C19.2535 29.3368 19.3505 29.1529 19.3875 28.953L19.8781 26.2999C21.0094 25.8749 22.0531 25.2718 22.9906 24.503L25.5281 25.4062C25.7195 25.4738 25.9269 25.4817 26.1228 25.4287C26.3188 25.3756 26.4939 25.2642 26.625 25.1093L26.6813 25.0437C27.7688 23.7593 28.6031 22.3124 29.1688 20.7405L29.1969 20.6593C29.3313 20.2718 29.2156 19.8374 28.9 19.5655ZM16.0156 21.1968C12.9813 21.1968 10.5219 18.7374 10.5219 15.703C10.5219 12.6687 12.9813 10.2093 16.0156 10.2093C19.05 10.2093 21.5094 12.6687 21.5094 15.703C21.5094 18.7374 19.05 21.1968 16.0156 21.1968Z" fill="white"/>
</svg>
