<svg width="15" height="15" viewBox="0 0 15 15" fill="none" xmlns="http://www.w3.org/2000/svg">
<path d="M12.0967 11.0599C12.3534 10.6516 12.505 10.1791 12.505 9.66573C12.505 8.21323 11.3325 7.04073 9.88004 7.04073C8.42754 7.04073 7.25504 8.21323 7.25504 9.66573C7.25504 11.1182 8.42754 12.2907 9.87421 12.2907C10.3875 12.2907 10.8659 12.1391 11.2684 11.8824L13.0884 13.7024L13.9167 12.8741L12.0967 11.0599ZM9.88004 11.1241C9.49327 11.1241 9.12233 10.9704 8.84884 10.6969C8.57535 10.4234 8.42171 10.0525 8.42171 9.66573C8.42171 9.27895 8.57535 8.90802 8.84884 8.63453C9.12233 8.36104 9.49327 8.20739 9.88004 8.20739C10.2668 8.20739 10.6377 8.36104 10.9112 8.63453C11.1847 8.90802 11.3384 9.27895 11.3384 9.66573C11.3384 10.0525 11.1847 10.4234 10.9112 10.6969C10.6377 10.9704 10.2668 11.1241 9.88004 11.1241ZM9.67004 6.16573C9.23837 6.17739 8.82421 6.27073 8.44504 6.42823L8.12421 5.94406L5.90754 9.54906L4.15171 7.49573L2.03421 10.8849L1.08337 10.2024L4.00004 5.53573L5.75004 7.57739L8.08337 3.78573L9.67004 6.16573ZM11.1809 6.45739C10.8075 6.29406 10.405 6.19489 9.98504 6.17156L12.9717 1.45239L13.9167 2.14073L11.1809 6.45739Z" fill="#FAFAFA"/>
</svg>
