<svg id="Layer_1" data-name="Layer 1" xmlns="http://www.w3.org/2000/svg" viewBox="0 0 96.29 31.89"><defs><style>.cls-1{fill:none;stroke:#231f20;stroke-linecap:round;stroke-linejoin:round;stroke-width:1.44px;}.cls-2{fill:#64645f;}.cls-3{fill:#ea8789;}</style></defs><path class="cls-1" d="M155.07,141.91" transform="translate(-324.66 -264.11)"/><path class="cls-2" d="M328.36,296V273.33c4.63-3.47,12.5-5.52,21.29-5.52,9.24,0,17.45,2.26,22,6a1.87,1.87,0,0,0,2.38,0c4.51-3.78,12.72-6,22-6,8.8,0,16.67,2.05,21.3,5.52V295h3.69V272.43a1.84,1.84,0,0,0-.66-1.42c-5.24-4.38-14.11-6.9-24.33-6.9-9.49,0-17.81,2.17-23.15,6-5.33-3.81-13.65-6-23.15-6-10.22,0-19.09,2.52-24.33,6.9a1.84,1.84,0,0,0-.66,1.42V296Z" transform="translate(-324.66 -264.11)"/><path class="cls-3" d="M341.07,293.77l2.1-2.56A6.3,6.3,0,0,0,347,292.8c1.37,0,2-.53,2-1.36s-.85-1.19-2.19-1.75l-2-.83a4.55,4.55,0,0,1-3.15-4.26c0-2.6,2.34-4.69,5.63-4.69a7.23,7.23,0,0,1,5.05,2l-1.86,2.33a5.05,5.05,0,0,0-3.19-1.19c-1.15,0-1.85.46-1.85,1.3s1,1.18,2.35,1.73l1.94.77a4.28,4.28,0,0,1,3.06,4.25c0,2.58-2.16,4.86-5.92,4.86A8.67,8.67,0,0,1,341.07,293.77Z" transform="translate(-324.66 -264.11)"/><path class="cls-2" d="M354.39,280.21h3.81l1,7.06.63,4.92h.08c.29-1.65.61-3.31.92-4.92l1.58-7.06h3.13l1.62,7.06c.32,1.59.59,3.25.9,4.92h.1c.19-1.67.4-3.31.59-4.92l1-7.06h3.54l-2.69,15.5h-4.69L364.5,289c-.25-1.19-.46-2.44-.61-3.61h-.1c-.19,1.17-.38,2.42-.61,3.61l-1.35,6.75h-4.61Z" transform="translate(-324.66 -264.11)"/><path class="cls-2" d="M375.33,280.31a2.13,2.13,0,1,1,2.13,1.9A1.95,1.95,0,0,1,375.33,280.31Zm.28,3.54h3.68v11.86h-3.68Z" transform="translate(-324.66 -264.11)"/><path class="cls-2" d="M383.3,291.31v-4.56h-1.61V284l1.81-.15.42-3.12H387v3.12h2.79v2.9H387v4.52c0,1.32.62,1.84,1.5,1.84a4.31,4.31,0,0,0,1.08-.21l.58,2.67a8.54,8.54,0,0,1-2.68.44C384.51,296,383.3,294.13,383.3,291.31Z" transform="translate(-324.66 -264.11)"/><path class="cls-2" d="M392.61,279.06h3.69v4l-.16,2.11a5.22,5.22,0,0,1,3.62-1.61c2.59,0,3.69,1.86,3.69,4.82v7.33h-3.71v-6.87c0-1.63-.44-2.11-1.37-2.11a2.83,2.83,0,0,0-2.07,1.06v7.92h-3.69Z" transform="translate(-324.66 -264.11)"/></svg>