<svg id="Layer_1" data-name="Layer 1" xmlns="http://www.w3.org/2000/svg" viewBox="0 0 96.29 31.89"><defs><style>.cls-1{fill:none;stroke:#231f20;stroke-linecap:round;stroke-linejoin:round;stroke-width:1.44px;}.cls-2{fill:#64645f;}.cls-3{fill:#ea8789;}</style></defs><path class="cls-1" d="M155.07,141.91" transform="translate(-332.23 -265.77)"/><path class="cls-2" d="M335.93,297.64V275c4.63-3.46,12.49-5.51,21.29-5.51,9.24,0,17.45,2.25,22,6a1.85,1.85,0,0,0,2.38,0c4.51-3.78,12.72-6,22-6,8.8,0,16.67,2,21.29,5.51v21.66h3.7V274.09a1.84,1.84,0,0,0-.66-1.42c-5.24-4.39-14.11-6.9-24.33-6.9-9.49,0-17.81,2.16-23.15,6-5.33-3.82-13.66-6-23.15-6-10.22,0-19.09,2.51-24.33,6.9a1.84,1.84,0,0,0-.66,1.42v23.55Z" transform="translate(-332.23 -265.77)"/><path class="cls-3" d="M349.69,295.41l1.77-2.13a6.1,6.1,0,0,0,3.92,1.71c1.61,0,2.46-.69,2.46-1.77s-.94-1.5-2.31-2.08l-2.07-.88a4.47,4.47,0,0,1-3.12-4.15c0-2.52,2.21-4.46,5.33-4.46a6.85,6.85,0,0,1,4.84,2L359,285.57a5,5,0,0,0-3.28-1.27c-1.35,0-2.21.6-2.21,1.63s1.09,1.5,2.4,2l2,.85c1.88.77,3.11,2,3.11,4.19,0,2.52-2.11,4.67-5.67,4.67A8.22,8.22,0,0,1,349.69,295.41Z" transform="translate(-332.23 -265.77)"/><path class="cls-2" d="M362.74,281.92h3.12l1.23,7.55c.23,1.63.48,3.25.71,4.92h.09c.31-1.67.64-3.32,1-4.92l1.79-7.55h2.65l1.77,7.55c.33,1.58.64,3.25,1,4.92h.1c.23-1.67.46-3.32.69-4.92l1.23-7.55H381l-2.86,15.45h-3.83l-1.73-7.63c-.25-1.21-.48-2.4-.67-3.59h-.08c-.21,1.19-.42,2.38-.67,3.59l-1.69,7.63H365.7Z" transform="translate(-332.23 -265.77)"/><path class="cls-2" d="M383.33,282.13a1.79,1.79,0,1,1,1.79,1.69A1.65,1.65,0,0,1,383.33,282.13Zm.25,3.57h3.07v11.67h-3.07Z" transform="translate(-332.23 -265.77)"/><path class="cls-2" d="M390.87,293.28v-5.17h-1.64v-2.27l1.81-.14.36-3.15h2.54v3.15h2.87v2.41h-2.87v5.17c0,1.34.54,2,1.58,2a3.28,3.28,0,0,0,1.15-.25l.5,2.23a7.53,7.53,0,0,1-2.46.44C391.94,297.66,390.87,295.89,390.87,293.28Z" transform="translate(-332.23 -265.77)"/><path class="cls-2" d="M399.71,280.74h3.07v4.19l-.15,2.18a5.35,5.35,0,0,1,3.67-1.71c2.52,0,3.6,1.76,3.6,4.69v7.28h-3.06v-6.9c0-1.81-.5-2.44-1.65-2.44a3.28,3.28,0,0,0-2.41,1.31v8h-3.07Z" transform="translate(-332.23 -265.77)"/></svg>