<svg width="25" height="24" viewBox="0 0 25 24" fill="none" xmlns="http://www.w3.org/2000/svg">
<g clip-path="url(#clip0_87_518)">
<path d="M10.7797 11.3144C11.8737 11.3144 12.9229 10.908 13.6965 10.1847C14.4701 9.4613 14.9047 8.48022 14.9047 7.45724C14.9047 6.43426 14.4701 5.45318 13.6965 4.72983C12.9229 4.00647 11.8737 3.6001 10.7797 3.6001C9.68565 3.6001 8.63644 4.00647 7.86285 4.72983C7.08926 5.45318 6.65466 6.43426 6.65466 7.45724C6.65466 8.48022 7.08926 9.4613 7.86285 10.1847C8.63644 10.908 9.68565 11.3144 10.7797 11.3144Z" fill="#FAFBFC"/>
<path d="M10.7795 13.886C12.9676 13.886 15.066 14.6987 16.6132 16.1454C18.1603 17.5922 19.0295 19.5543 19.0295 21.6003H2.52954C2.52954 19.5543 3.39873 17.5922 4.94591 16.1454C6.49309 14.6987 8.59151 13.886 10.7795 13.886Z" fill="#FAFBFC"/>
<path d="M21.7795 8.74299C21.7795 8.402 21.6347 8.07497 21.3768 7.83385C21.1189 7.59273 20.7692 7.45728 20.4045 7.45728C20.0399 7.45728 19.6901 7.59273 19.4323 7.83385C19.1744 8.07497 19.0295 8.402 19.0295 8.74299V10.0287H17.6545C17.2899 10.0287 16.9401 10.1642 16.6823 10.4053C16.4244 10.6464 16.2795 10.9734 16.2795 11.3144C16.2795 11.6554 16.4244 11.9824 16.6823 12.2236C16.9401 12.4647 17.2899 12.6001 17.6545 12.6001H19.0295V13.8858C19.0295 14.2268 19.1744 14.5539 19.4323 14.795C19.6901 15.0361 20.0399 15.1716 20.4045 15.1716C20.7692 15.1716 21.1189 15.0361 21.3768 14.795C21.6347 14.5539 21.7795 14.2268 21.7795 13.8858V12.6001H23.1545C23.5192 12.6001 23.869 12.4647 24.1268 12.2236C24.3847 11.9824 24.5295 11.6554 24.5295 11.3144C24.5295 10.9734 24.3847 10.6464 24.1268 10.4053C23.869 10.1642 23.5192 10.0287 23.1545 10.0287H21.7795V8.74299Z" fill="#FAFBFC"/>
</g>
<defs>
<clipPath id="clip0_87_518">
<rect width="24" height="24" fill="white" transform="translate(0.129517)"/>
</clipPath>
</defs>
</svg>
